# xmcd
#
# Track frame offsets: 
#        150
#        16359
#        33080
#        48536
#        61353
#        76372
#        95485
#        115867
#        133518
#        149280
#
# Disc length: 2150 seconds
#
# Revision: 0
# Processed by: cddbd v1.5.2PL0 Copyright (c) Steve Scherf et al.
# Submitted via: ExactAudioCopyFreeDBPlugin 1.0
#
DISCID=8008640a
DTITLE=Rhye - Woman
DYEAR=2013
DGENRE=R&B
TTITLE0=Open
TTITLE1=The Fall
TTITLE2=Last Dance
TTITLE3=Verse
TTITLE4=Shed Some Blood
TTITLE5=3 Days
TTITLE6=One of Those Summer Days
TTITLE7=Major Minor Love
TTITLE8=Hunger
TTITLE9=Woman
EXTD=
EXTT0=
EXTT1=
EXTT2=
EXTT3=
EXTT4=
EXTT5=
EXTT6=
EXTT7=
EXTT8=
EXTT9=
PLAYORDER=
